<svg xmlns="http://www.w3.org/2000/svg" xmlns:xlink="http://www.w3.org/1999/xlink" width="197.341" height="75.379" viewBox="0 0 197.341 75.379"><defs><clipPath id="a"><rect width="197.341" height="75.379" fill="#fff"/></clipPath></defs><g clip-path="url(#a)"><path d="M83,34.273S100.227,16.054,129.71,9.491c36.384-7.5,63.236,2.348,63.236,2.348L194.8,4.971s-31.944-9.54-66.086.167C92.959,15.146,78.947,34.273,78.947,34.273Z" transform="translate(-56.463 -0.558)" fill="#fff" fill-rule="evenodd"/><path d="M490.24,14.588h15.034L509.338,0H494.3Z" transform="translate(-350.621 0)" fill="#fff" fill-rule="evenodd"/><path d="M533.615,72.69h20.04l5.092-18.278h-20.04Z" transform="translate(-381.643 -38.916)" fill="#fff" fill-rule="evenodd"/><path d="M594.816,140.54h22.847l5.092-18.278H599.908Z" transform="translate(-425.414 -87.442)" fill="#fff" fill-rule="evenodd"/><path d="M11.384,134.329H8.842v-3.147h4.445q2.557,0,3.439,1.024t.269,3.264l-1.2,4.388a5.894,5.894,0,0,1-1.779,3.109,4.929,4.929,0,0,1-3.223.984H8.842v-3.106h1.187a2.719,2.719,0,0,0,1.728-.506,2.928,2.928,0,0,0,.936-1.587l.614-2.245a1.729,1.729,0,0,0-.16-1.651,2.307,2.307,0,0,0-1.763-.527m-2.542,0h-2.8l-1.783,6.516H8.842v3.106H0l3.493-12.769H8.842Z" transform="translate(0 -93.822)" fill="#fff"/><path d="M71.88,134.364H69.214v-3.182h3.665q2.657,0,3.368.9t.062,3.284a6.882,6.882,0,0,1-1.1,2.459,3.124,3.124,0,0,1-1.726,1.08,1.616,1.616,0,0,1,1.094.849,2.344,2.344,0,0,1,.011,1.581l-.715,2.614H70.458L70.991,142c.138-.5.13-.849-.026-1.036s-.539-.284-1.148-.284h-.6v-3.2h1.813a1.448,1.448,0,0,0,1.057-.363,2.973,2.973,0,0,0,.634-1.317,1.5,1.5,0,0,0,.008-1.1.9.9,0,0,0-.846-.343m-2.666,0H66.458l-.854,3.121h3.609v3.2H64.73l-.894,3.267h-3.42l3.493-12.769h5.3Z" transform="translate(-43.21 -93.822)" fill="#fff"/><path d="M119.436,143.951h-3.412l3.493-12.769h3.412Z" transform="translate(-82.981 -93.822)" fill="#fff"/><path d="M152.214,140.35l6.962-9.168H162.8l-9.447,12.769H149.22l-2.41-12.769h3.72Z" transform="translate(-104.999 -93.821)" fill="#fff"/><path d="M214.713,134.294h-8.8l-.528,1.932h8.286l-.734,2.684h-8.286l-.534,1.953h8.931l-.845,3.088H199.872l3.493-12.769h12.2Z" transform="translate(-142.949 -93.822)" fill="#fff"/><path d="M266.747,135.4l.035-.129a1.083,1.083,0,0,0-.134-1.092,1.766,1.766,0,0,0-1.272-.348h-2.732a4.141,4.141,0,0,0-2.385.486,3.825,3.825,0,0,0-1.053,2.026l-.486,1.777q-.377,1.379.037,1.894t2.055.515h1.981a4.653,4.653,0,0,0,2.234-.372,2.22,2.22,0,0,0,.886-1.384l.038-.138h3.458c0,.017-.011.05-.018.094-.087.372-.155.65-.2.831a7.8,7.8,0,0,1-.825,2.026,4.075,4.075,0,0,1-1.2,1.276,4.411,4.411,0,0,1-1.64.662,14.431,14.431,0,0,1-2.726.2h-3.811a10.353,10.353,0,0,1-2.514-.214,2.414,2.414,0,0,1-1.208-.729,2.559,2.559,0,0,1-.574-1.5,6.938,6.938,0,0,1,.306-2.242l.953-3.484a6.926,6.926,0,0,1,2.186-3.829,7.353,7.353,0,0,1,4.429-1.086h3.812a13.161,13.161,0,0,1,2.654.187,2.18,2.18,0,0,1,1.2.635,2,2,0,0,1,.441,1.25,6.572,6.572,0,0,1-.287,1.967c-.051.187-.094.334-.121.433s-.064.2-.1.287Z" transform="translate(-182.15 -93.432)" fill="#fff"/><path d="M378.861,143.951h-4.994l-4.155-9.288-2.541,9.288h-3.4l3.493-12.769h5.048l4.089,9.364,2.561-9.364h3.4Z" transform="translate(-260.166 -93.822)" fill="#fff"/><path d="M440.233,143.951h-3.4l2.637-9.64h-4.672l.856-3.129H448.4l-.856,3.129H442.87Z" transform="translate(-310.966 -93.822)" fill="#fff"/><path d="M325.992,134.294h-8.8l-.529,1.932h8.286l-.734,2.684h-8.286l-.534,1.953h8.931l-.845,3.088H311.151l3.493-12.769h12.2Z" transform="translate(-222.536 -93.822)" fill="#fff"/><path d="M543.5,134.364h-2.666v-3.182H544.5q2.657,0,3.368.9t.061,3.284a6.882,6.882,0,0,1-1.1,2.459,3.125,3.125,0,0,1-1.726,1.08,1.617,1.617,0,0,1,1.094.849,2.344,2.344,0,0,1,.011,1.581l-.715,2.614h-3.412l.533-1.947c.138-.5.13-.849-.026-1.036s-.539-.284-1.148-.284h-.6v-3.2h1.813a1.448,1.448,0,0,0,1.057-.363,2.973,2.973,0,0,0,.634-1.317,1.5,1.5,0,0,0,.008-1.1.9.9,0,0,0-.846-.343m-2.666,0h-2.755l-.854,3.121h3.609v3.2h-4.484l-.893,3.267h-3.42l3.493-12.769h5.3Z" transform="translate(-380.514 -93.822)" fill="#fff"/><path d="M493.949,134.294h-8.8l-.529,1.932h8.286l-.734,2.684H483.89l-.534,1.953h8.931l-.845,3.088H479.107l3.493-12.769h12.2Z" transform="translate(-342.659 -93.822)" fill="#fff"/><path d="M232.289,209.648h3.457l2.044,9.946h-2.955l-.345-1.759h-5.384l-1.258,1.759h-2.967Zm-1.6,6.044h3.4l-.7-3.737Z" transform="translate(-160.836 -149.941)" fill="#fff"/><path d="M322.436,209.648h8.016c2.046,0,2.277,1.168,1.789,2.953l-.172.632c-.364,1.333-.841,2.115-2.152,2.445l-.007.028c.745.165,1.294.563.847,2.2l-.462,1.69h-2.656l.327-1.2c.285-1.044.116-1.387-.71-1.387h-4.175l-.705,2.583h-2.656Zm1.32,4.89h4.39a1.181,1.181,0,0,0,1.267-1.044l.09-.33c.24-.879-.1-1.044-.935-1.044h-4.151Z" transform="translate(-228.663 -149.941)" fill="#fff"/><path d="M412.189,209.648h9.475l-.631,2.308h-6.819l-.435,1.593h6.46l-.563,2.061h-6.46l-.435,1.593h6.975l-.653,2.39h-9.631Z" transform="translate(-292.855 -149.941)" fill="#fff"/><path d="M461.992,189.989l-5.935,21.27,30.117-.063,5.872-21.207Zm16.971,15.545h-4.116l-3.014-7.226h-.024l-1.975,7.226h-2.656l2.718-9.946h4.116l3.014,7.226h.024l1.975-7.226h2.656Z" transform="translate(-326.173 -135.881)" fill="#fff"/><path d="M593.4,209.648h3.457l2.044,9.946H595.95l-.345-1.759h-5.384l-1.258,1.759H586Zm-1.6,6.044h3.4l-.7-3.737Z" transform="translate(-419.106 -149.941)" fill="#fff"/></g></svg>