<?xml version="1.0" encoding="UTF-8" standalone="no"?>
<!DOCTYPE svg PUBLIC "-//W3C//DTD SVG 1.1//EN" "http://www.w3.org/Graphics/SVG/1.1/DTD/svg11.dtd">
<svg width="100%" height="100%" viewBox="0 0 300 150" version="1.1" xmlns="http://www.w3.org/2000/svg" xmlns:xlink="http://www.w3.org/1999/xlink" xml:space="preserve" xmlns:serif="http://www.serif.com/" style="fill-rule:evenodd;clip-rule:evenodd;stroke-linejoin:round;stroke-miterlimit:2;">
    <g transform="matrix(0.384081,0,0,0.384081,-38.5089,-132.4)">
        <path d="M198.19,574.27L181.19,574.27L175.72,559.58L146.73,559.58L141.07,574.27L124.85,574.27L152.11,505.73L170.83,505.73L198.19,574.27ZM161.51,521.57L161.22,521.57L151.52,546.91L171.01,546.91L161.51,521.57Z" style="fill:white;fill-rule:nonzero;"/>
    </g>
    <g transform="matrix(0.384081,0,0,0.384081,-38.5089,-132.4)">
        <path d="M219.82,550.56L219.82,574.27L203.6,574.27L203.6,505.73L235.47,505.73C252.65,505.73 262.16,513.7 262.16,528.19C262.16,537.41 257.17,544.51 248.62,547.96L264.36,574.26L246.51,574.26L232.69,550.55L219.83,550.55L219.82,550.56ZM219.82,518.49L219.82,537.79L233.36,537.79C241.81,537.79 245.84,534.72 245.84,528.19C245.84,521.66 241.81,518.49 233.36,518.49L219.82,518.49Z" style="fill:white;fill-rule:nonzero;"/>
    </g>
    <g transform="matrix(0.384081,0,0,0.384081,-38.5089,-132.4)">
        <path d="M284.27,540C284.27,554.5 290.32,562.65 300.97,562.65C308.55,562.65 313.16,558.71 314.6,551.32L330.73,551.32C327.75,566.78 317.19,575.41 300.97,575.41C290.89,575.41 282.73,572.15 276.59,565.62C270.45,559.19 267.37,550.65 267.37,539.99C267.37,529.33 270.44,520.89 276.59,514.36C282.73,507.83 290.89,504.57 300.97,504.57C317.39,504.57 327.75,513.21 330.73,528.66L314.6,528.66C313.16,521.27 308.55,517.33 300.97,517.33C290.31,517.33 284.27,525.49 284.27,539.98L284.27,540Z" style="fill:white;fill-rule:nonzero;"/>
    </g>
    <g transform="matrix(0.384081,0,0,0.384081,-38.5089,-132.4)">
        <path d="M374.36,574.27L357.75,574.27L357.75,518.5L334.04,518.5L334.04,505.73L398.16,505.73L398.16,518.5L374.35,518.5L374.35,574.27L374.36,574.27Z" style="fill:white;fill-rule:nonzero;"/>
    </g>
    <g transform="matrix(0.384081,0,0,0.384081,-38.5089,-132.4)">
        <rect x="404.82" y="505.73" width="16.61" height="68.54" style="fill:white;fill-rule:nonzero;"/>
    </g>
    <g transform="matrix(0.384081,0,0,0.384081,-38.5089,-132.4)">
        <path d="M446.87,540C446.87,554.5 452.92,562.65 463.57,562.65C471.15,562.65 475.76,558.71 477.2,551.32L493.33,551.32C490.35,566.78 479.79,575.41 463.57,575.41C453.49,575.41 445.33,572.15 439.19,565.62C433.05,559.19 429.97,550.65 429.97,539.99C429.97,529.33 433.04,520.89 439.19,514.36C445.33,507.83 453.49,504.57 463.57,504.57C479.99,504.57 490.35,513.21 493.33,528.66L477.2,528.66C475.76,521.27 471.15,517.33 463.57,517.33C452.91,517.33 446.87,525.49 446.87,539.98L446.87,540Z" style="fill:white;fill-rule:nonzero;"/>
    </g>
    <g transform="matrix(0.384081,0,0,0.384081,-38.5089,-132.4)">
        <path d="M575.12,561.41L575.12,574.27L522.61,574.27L522.61,505.73L574.45,505.73L574.45,518.5L538.84,518.5L538.84,533.47L570.23,533.47L570.23,546.24L538.84,546.24L538.84,561.41L575.13,561.41L575.12,561.41Z" style="fill:white;fill-rule:nonzero;"/>
    </g>
    <g transform="matrix(0.384081,0,0,0.384081,-38.5089,-132.4)">
        <path d="M653.1,574.27L636.1,574.27L630.63,559.58L601.64,559.58L595.98,574.27L579.76,574.27L607.02,505.73L625.74,505.73L653.1,574.27ZM616.42,521.57L616.13,521.57L606.43,546.91L625.92,546.91L616.42,521.57Z" style="fill:white;fill-rule:nonzero;"/>
    </g>
    <g transform="matrix(0.384081,0,0,0.384081,-38.5089,-132.4)">
        <path d="M674.73,550.56L674.73,574.27L658.51,574.27L658.51,505.73L690.38,505.73C707.56,505.73 717.07,513.7 717.07,528.19C717.07,537.41 712.08,544.51 703.53,547.96L719.27,574.26L701.42,574.26L687.6,550.55L674.74,550.55L674.73,550.56ZM674.73,518.49L674.73,537.79L688.27,537.79C696.72,537.79 700.75,534.72 700.75,528.19C700.75,521.66 696.72,518.49 688.27,518.49L674.73,518.49Z" style="fill:white;fill-rule:nonzero;"/>
    </g>
    <g transform="matrix(0.384081,0,0,0.384081,-38.5089,-132.4)">
        <path d="M762.27,574.27L745.66,574.27L745.66,518.5L721.95,518.5L721.95,505.73L786.07,505.73L786.07,518.5L762.26,518.5L762.26,574.27L762.27,574.27Z" style="fill:white;fill-rule:nonzero;"/>
    </g>
    <g transform="matrix(0.384081,0,0,0.384081,-38.5089,-132.4)">
        <path d="M809.34,574.27L792.73,574.27L792.73,505.73L809.34,505.73L809.34,533.18L840.06,533.18L840.06,505.73L856.76,505.73L856.76,574.27L840.06,574.27L840.06,545.86L809.34,545.86L809.34,574.27Z" style="fill:white;fill-rule:nonzero;"/>
    </g>
</svg>
