<?xml version="1.0" encoding="UTF-8" standalone="no"?>
<!DOCTYPE svg PUBLIC "-//W3C//DTD SVG 1.1//EN" "http://www.w3.org/Graphics/SVG/1.1/DTD/svg11.dtd">
<svg width="100%" height="100%" viewBox="0 0 300 150" version="1.1" xmlns="http://www.w3.org/2000/svg" xmlns:xlink="http://www.w3.org/1999/xlink" xml:space="preserve" xmlns:serif="http://www.serif.com/" style="fill-rule:evenodd;clip-rule:evenodd;stroke-linejoin:round;stroke-miterlimit:2;">
    <g transform="matrix(0.11687,0,0,0.120293,150,75)">
        <g transform="matrix(1,0,0,1,-1197.92,-587.5)">
            <clipPath id="_clip1">
                <rect x="0" y="0" width="2395.83" height="1175"/>
            </clipPath>
            <g clip-path="url(#_clip1)">
                <g transform="matrix(4.16667,0,0,4.16667,0,0)">
                    <path d="M421.745,138.958L418.043,129.428C417.611,128.318 418.972,127.383 419.853,128.185L463.104,168.533C463.104,168.533 444.633,156.548 434.987,156.045C425.342,155.542 405.288,151.275 390.851,137.074C382.259,128.628 377.315,120.37 374.72,115.066C374.208,114.02 375.578,113.09 376.357,113.956C382.827,121.145 395.856,134.293 407.088,137.385C422.752,141.691 421.745,138.958 421.745,138.958ZM371.312,35.309C359.139,21.827 357.938,18.006 345.524,15.282C330.811,12.054 327.052,18.843 317.881,22.141C305.872,26.459 295.852,20.341 285.777,10.582C284.004,8.865 279.752,5.724 275.592,3.586C272.874,2.189 272.712,0.911 268.082,0.911C265.407,0.911 263.294,3.464 260.984,4.718C257.72,6.49 252.033,10.033 249.873,17.989C247.032,28.45 245.243,21.83 234.75,34.93C226.902,44.727 212.323,44.737 198.125,51.116C190.904,54.36 183.174,62.694 173.64,75.189C163.071,89.042 156.744,94.224 153.682,101.937C148.382,115.29 152.859,124.57 131.048,140.619C117.091,150.89 92.641,185.976 92.641,185.976C104.786,177.35 113.064,170.543 117.669,166.55C118.929,165.457 120.832,166.685 120.356,168.284L117.079,179.275C117.079,179.275 127.131,174.419 137.452,167.972C147.78,161.513 166.858,149.608 168.785,163.687C170.71,177.773 154.858,185.283 154.858,185.283C163.901,184.142 192.51,157.126 197.799,143.96C203.089,130.783 190.045,139.523 170.177,142.52C150.313,145.519 172.25,133.481 174.5,131.984C176.745,130.489 181.657,128.327 185.934,118.864C190.216,109.406 189.963,104.027 193.691,104.221C195.014,104.29 195.561,105.972 195.72,108.008C195.787,108.863 196.909,109.096 197.293,108.329C198.41,106.101 199.997,103.497 202.161,100.624C207.228,93.894 212.173,84.203 218.982,77.832C223.056,74.028 222.251,81.706 220.947,88.49C220.515,90.74 223.098,92.25 224.911,90.85C226.587,89.554 228.345,88.705 229.79,89.156C233.918,90.443 228.884,102.557 220.907,117.192C215.382,127.346 210.778,138.19 208.474,143.888C208.067,144.894 209.267,145.762 210.114,145.084C213.945,142.018 220.183,138.042 223.129,141.78C227.549,147.394 200.74,166.702 200.74,166.702C200.74,166.702 211.469,161.339 225.927,149.724C240.384,138.108 241.291,124.709 246.997,124.741C252.707,124.772 229.677,142.93 243.563,135.052C253.251,129.551 260.526,113.592 264.04,104.44C264.407,103.483 263.185,102.709 262.483,103.455C253.424,113.086 237.49,114.026 237.49,114.026C240.944,109.653 243.461,102.486 244.859,97.747C245.058,97.071 244.145,96.663 243.758,97.253C238.13,105.838 230.909,107.497 230.909,107.497C239.748,99.628 238.646,55.836 247.109,46.061C255.573,36.284 263.248,61.722 269.474,59.622C275.693,57.528 280.405,41.783 284.316,43.053C288.014,44.267 283.603,76.459 283.542,79.392C283.628,77.484 286.043,64.551 290.404,63.813C293.946,63.216 289.371,88.227 286.635,101.812C286.266,103.641 288.799,104.479 289.617,102.801C297.387,86.862 299.922,60.834 297.612,53.432C295.604,46.997 293.591,35.198 292.667,29.409C292.532,28.563 293.575,28.079 294.148,28.716C296.561,31.399 300.028,34.033 302.734,35.905C304.882,37.39 307.843,36.616 308.996,34.273L309.46,33.331C310.517,31.187 312.554,29.694 314.92,29.351C318.518,28.83 323.957,28.842 328.575,32.197C338.189,39.18 350.666,49.316 349.422,62.759C348.962,67.738 351.058,74.617 353.061,79.845C353.99,82.27 351.357,84.511 349.114,83.202L332.677,73.608C330.346,72.247 327.403,73.845 327.285,76.542C326.979,83.535 326.317,94.274 325.116,94.933C323.323,95.915 314.704,103.802 310.538,116.221C306.371,128.644 291.958,132.727 282.64,135.472C275.892,137.456 282.089,128.263 286.018,123.045C286.245,122.744 285.837,122.378 285.563,122.637C279.482,128.396 266.275,140.519 262.243,141.131C258.458,141.699 263.464,134.226 266.636,129.907C267.292,129.013 266.28,127.859 265.306,128.39C258.164,132.28 246.336,143.052 242.515,152.739C237.937,164.333 223.504,168.955 220.889,168.282C218.278,167.607 208.446,166.291 199.931,177.408C192.742,186.786 189.352,186.41 188.468,186.064C189.669,186.635 195.674,188.234 200.711,182.794C206.416,176.636 220.937,179.574 230.923,176.603C240.906,173.628 245.817,165.01 251.298,165.296C256.78,165.582 246.128,181.426 246.128,181.426C246.128,181.426 254.573,172.194 265.888,175.195C277.199,178.211 292.36,171.74 293.647,167.504C294.933,163.273 283.181,170.454 279.071,168.627C274.965,166.799 302.344,156.125 317.602,153.155C328.812,150.973 347.422,167.167 356.52,175.915C353.95,172.959 351.275,169.182 350.547,165.631C349.047,158.292 386.138,177.704 386.138,177.704C386.138,177.704 376.157,168.039 363.027,160.367C349.896,152.694 335.075,149.494 347.455,147.185C359.831,144.867 414.12,175.132 414.12,175.132C414.12,175.132 393.448,150.658 395.814,152.124C398.178,153.592 425.596,167.12 436.786,167.436C447.976,167.752 447.576,158.304 483.723,179.818C470.823,165.624 437.211,124.737 396.894,73.237C385.771,59.028 378.305,43.055 371.312,35.309Z" style="fill:white;fill-rule:nonzero;"/>
                    <path d="M283.541,79.558C283.538,79.523 283.541,79.454 283.542,79.392C283.539,79.461 283.538,79.519 283.541,79.558Z" style="fill:white;fill-rule:nonzero;"/>
                    <path d="M442.174,103.948C442.411,103.802 444.789,101.895 444.922,101.639C445.427,100.67 437.296,103.792 428.006,107.416C431.926,112.253 435.825,117.043 439.669,121.746C439.992,121.189 440.207,120.59 440.421,119.99C440.805,118.913 438.608,116.754 441.553,109.905L442.411,108.095C443.398,106.855 437.167,107.029 442.174,103.948Z" style="fill:white;fill-rule:nonzero;"/>
                    <path d="M482.876,151.764C485.905,151.7 488.546,155.423 494.033,156.797C499.522,158.169 507.562,157.072 510.662,159.756C513.398,162.127 516.726,161.509 517.393,161.279C516.903,161.417 515.028,161.541 511.136,157.469C506.526,152.642 501.088,153.099 499.64,153.359C498.191,153.618 490.261,151.495 487.828,146.507C485.793,142.329 479.326,137.602 475.418,135.879C474.895,135.648 474.339,136.131 474.687,136.511C476.403,138.383 479.122,141.634 477.032,141.352C474.808,141.048 467.599,135.728 464.295,133.214C464.147,133.102 463.919,133.25 464.041,133.38C466.167,135.642 469.534,139.643 465.817,138.724C460.695,137.456 452.772,135.563 450.573,130.226C449.832,128.428 446.912,127.147 443.331,126.221C450.281,134.702 457.007,142.849 463.329,150.463C466.512,151.613 468.443,152.589 467.516,152.888C466.971,153.063 466.187,153.012 465.322,152.862C466.133,153.837 466.929,154.793 467.724,155.749C470.033,156.133 472.514,156.24 474.74,155.826C481.012,154.667 485.599,158.69 485.599,158.69C485.599,158.69 479.848,151.827 482.876,151.764Z" style="fill:white;fill-rule:nonzero;"/>
                    <path d="M556.636,153.713C559.145,155.463 563.661,158.453 570.3,162.259C570.3,162.259 556.93,150.544 553.436,143.641C549.288,135.451 544.338,131.676 539.675,126.981C536.873,124.161 534.73,122.989 529.008,116.975C523.847,111.55 525.048,106.702 521.396,104.82C518.883,103.525 510.941,94.356 504.535,92.263C494.825,89.09 478.036,65.052 465.181,62.831C453.154,64.792 456.547,70.391 446.321,73.307C428.508,78.387 427.445,83.399 420.334,86.127C417.266,87.303 415.067,88.316 413.383,89.263C416.842,93.584 420.313,97.902 423.78,102.193C431.572,98.571 439.029,95.454 441.303,94.236C443.855,92.87 446.824,92.907 448.807,93.161C450.132,93.33 451.272,93.982 451.847,94.922L452.096,95.329C452.714,96.34 454.343,96.7 455.541,96.089C457.054,95.319 458.993,94.231 460.347,93.111C460.667,92.847 461.235,93.058 461.154,93.416C460.598,95.867 459.713,97.736 464.573,97.654C466.742,97.155 470.291,105.59 473.708,106.548C477.128,107.509 481.573,96.753 486.166,101.008C490.758,105.262 489.791,123.908 494.607,127.355C494.607,127.355 490.628,126.57 487.59,122.845C487.382,122.59 486.875,122.747 486.98,123.037C487.711,125.071 489.044,128.162 490.92,130.066C490.92,130.066 482.12,129.496 477.199,125.29C476.821,124.967 476.145,125.286 476.338,125.694C478.202,129.63 482.088,136.512 487.395,138.96C494.997,142.464 482.431,134.483 485.584,134.531C488.734,134.578 489.125,140.296 497.011,145.398C504.898,150.5 510.777,152.9 510.777,152.9C510.777,152.9 496.135,144.389 498.621,142.044C500.285,140.476 503.717,142.257 505.805,143.606C506.261,143.901 506.914,143.536 506.7,143.108C505.477,140.659 503.021,135.983 500.049,131.591C495.765,125.272 493.085,120.056 495.375,119.552C496.176,119.375 497.14,119.756 498.055,120.325C499.041,120.94 500.483,120.327 500.263,119.367C499.598,116.462 499.216,113.177 501.434,114.842C505.142,117.629 507.792,121.811 510.535,124.731C511.712,125.986 512.57,127.118 513.169,128.083C513.367,128.404 513.987,128.316 514.028,127.962C514.13,127.089 514.445,126.37 515.181,126.354C517.241,126.311 517.057,128.6 519.344,132.675C521.627,136.752 524.321,137.726 525.549,138.387C526.779,139.048 538.792,144.41 527.849,142.921C516.904,141.434 509.775,137.571 512.586,143.241C515.4,148.907 530.973,160.721 535.956,161.303C535.956,161.303 527.266,157.935 528.444,151.954C529.624,145.976 540.059,151.251 545.707,154.113C551.353,156.969 556.863,159.145 556.863,159.145L555.144,154.427C554.894,153.741 555.949,153.234 556.636,153.713Z" style="fill:white;fill-rule:nonzero;"/>
                    <path d="M116.406,124.022C115.992,129.258 114.758,124.837 108.312,126.378C106.759,126.749 105.39,127.668 104.362,128.891L98.404,132.887C79.781,154.096 97.131,136.954 98.676,138.424C103.755,143.259 119.36,142.744 119.663,143.648C120.004,144.666 120.342,145.68 121.211,146.507C122.656,145.184 128.774,139.053 130.072,138.099C136.461,133.397 137.119,133.572 139.691,129.611C139.42,129.516 138.302,128.48 136.039,128.634C135.751,128.654 116.617,121.36 116.406,124.022Z" style="fill:white;fill-rule:nonzero;"/>
                    <path d="M118.105,149.498C113.859,150.362 110.195,151.665 109.316,153.686C107.015,158.98 99.056,160.72 93.911,161.89C90.177,162.737 86.94,164.342 89.109,162.121C89.233,161.993 86.555,163.492 86.382,163.561C86.211,163.63 84.877,164.04 82.647,164.301C80.553,164.544 90.89,155.626 92.641,153.788C92.996,153.415 84.921,158.197 84.393,158.417C80.453,160.065 73.869,165.11 71.754,169.248C69.226,174.188 61.256,176.158 59.812,175.871C58.37,175.584 52.941,175.023 48.24,179.76C44.27,183.756 67.204,179.792 66.716,179.644L90.137,176.112C92.935,175.484 95.199,174.864 97.152,174.265C103.385,166.116 111.19,156.454 118.105,149.498Z" style="fill:white;fill-rule:nonzero;"/>
                    <path d="M12.567,170.728C1.598,172.006 30.46,157.34 31.703,156.702C32.942,156.065 39.424,146.932 39.796,146.518C42.913,143.036 45.407,141.17 46.894,139.745C61.014,126.216 40.396,151.678 40.482,152.553C40.516,152.907 40.173,155.605 46.772,150.34C47.66,149.632 48.269,148.271 49.471,147.04C52.269,144.172 54.999,140.043 58.759,137.327C61.01,135.706 60.564,138.982 59.843,141.874C59.605,142.83 61.035,143.47 62.033,142.875C62.958,142.323 63.93,141.961 64.727,142.153C67.007,142.701 64.227,147.864 59.822,154.1C56.767,158.433 54.221,163.062 52.951,165.487C52.729,165.91 53.375,166.287 53.837,166.002C55.95,164.693 59.416,162.978 61.049,164.578C62.957,166.448 61.049,167.308 60.125,167.594C59.804,167.694 59.524,167.875 59.299,168.124C58.283,169.252 56.046,172.023 62.594,167.963C70.577,163.013 71.078,157.303 74.229,157.317C77.382,157.33 64.665,165.068 72.333,161.711C77.685,159.366 88.729,143.387 90.669,139.488C90.87,139.083 81.794,148.74 81.41,149.055C77.098,152.6 73.289,151.412 67.698,153.754C70.275,152.224 72.12,148.245 73.054,145.798C73.164,145.511 72.66,145.344 72.447,145.595C69.457,149.121 65.648,149.911 65.359,149.959C70.225,146.58 69.622,127.95 74.291,123.789C78.965,119.623 83.202,130.463 86.64,129.568C90.074,128.675 93.785,120.31 95.945,120.851C100.802,121.027 99.953,119.141 99.444,116.679C99.37,116.32 99.942,116.12 100.257,116.39C101.59,117.536 103.508,118.661 105.005,119.46C106.192,120.093 107.827,119.765 108.465,118.766L108.721,118.364C109.314,117.436 110.466,116.806 111.795,116.662C113.782,116.446 116.751,116.466 119.276,117.881C121.894,119.348 131.472,123.518 140.428,128.055C145.04,123.902 147.508,116.187 148.641,111.093C148.855,107.598 151.908,100.986 153.431,97.277C155.476,92.298 160.928,86.524 163.516,83.936C166.036,81.415 157.549,85.016 153.176,89.234C151.161,91.178 143.403,81.124 134.761,85.925C125.516,91.061 131.491,83.786 117.34,97.31C109.59,104.717 104.584,98.75 96.147,101.288C83.252,103.26 65.863,111.707 56.094,114.692C49.649,116.661 41.532,125.677 38.994,126.923C35.306,128.734 36.414,133.605 31.15,138.929C25.314,144.832 23.148,145.963 20.293,148.729C15.54,153.333 10.518,157.012 6.213,165.121C5.06,167.293 2.9,169.933 0.49,172.524C-0.928,174.049 1.011,176.338 2.743,175.181C2.769,175.164 2.795,175.147 2.82,175.13C3.516,174.664 4.562,175.191 4.299,175.872L2.489,180.555C2.489,180.555 8.04,178.486 13.739,175.739C19.442,172.986 29.977,167.914 31.041,173.913C32.049,179.611 24.216,182.784 23.412,183.109C28.473,182.535 44.154,171.094 47.062,165.507C49.983,159.892 23.539,169.451 12.567,170.728Z" style="fill:white;fill-rule:nonzero;"/>
                    <path d="M1.697,215.052L12.067,215.052L12.067,271.626L29.135,271.626L29.135,281.057L1.697,281.057L1.697,215.052Z" style="fill:white;fill-rule:nonzero;"/>
                    <path d="M73.18,259.178L68.467,225.893L63.843,259.178L73.18,259.178ZM74.501,268.137L62.525,268.137L60.732,281.057L51.115,281.057L61.863,215.052L75.913,215.052L86.665,281.057L76.291,281.057L74.501,268.137Z" style="fill:white;fill-rule:nonzero;"/>
                    <path d="M114.863,224.482L104.017,224.482L104.017,215.052L136.078,215.052L136.078,224.482L125.232,224.482L125.232,281.057L114.863,281.057L114.863,224.482Z" style="fill:white;fill-rule:nonzero;"/>
                    <rect x="160.51" y="215.052" width="10.37" height="66.005" style="fill:white;fill-rule:nonzero;"/>
                    <path d="M206.153,224.482L195.308,224.482L195.308,215.052L227.369,215.052L227.369,224.482L216.523,224.482L216.523,281.057L206.153,281.057L206.153,224.482Z" style="fill:white;fill-rule:nonzero;"/>
                    <path d="M251.418,265.404L251.418,215.052L261.792,215.052L261.792,266.157C261.792,270.874 263.773,272.57 267.071,272.57C270.373,272.57 272.353,270.874 272.353,266.157L272.353,215.052L282.345,215.052L282.345,265.404C282.345,275.965 277.066,282 266.884,282C256.696,282 251.418,275.965 251.418,265.404Z" style="fill:white;fill-rule:nonzero;"/>
                    <path d="M324.788,271.626C328.086,271.626 330.066,269.93 330.066,265.213L330.066,230.891C330.066,226.178 328.086,224.482 324.788,224.482L319.505,224.482L319.505,271.626L324.788,271.626ZM309.135,215.052L324.975,215.052C335.349,215.052 340.44,220.802 340.44,231.363L340.44,264.746C340.44,275.306 335.349,281.057 324.975,281.057L309.135,281.057L309.135,215.052Z" style="fill:white;fill-rule:nonzero;"/>
                    <path d="M366.852,215.052L395.139,215.052L395.139,224.482L377.222,224.482L377.222,241.924L391.463,241.924L391.463,251.354L377.222,251.354L377.222,271.626L395.139,271.626L395.139,281.057L366.852,281.057L366.852,215.052Z" style="fill:white;fill-rule:nonzero;"/>
                    <path d="M475.015,266.157L475.015,254.465C475.015,250.033 473.226,247.959 469.639,247.959C466.057,247.959 464.267,250.033 464.267,254.465L464.267,266.157C464.267,270.496 466.057,272.57 469.639,272.57C473.226,272.57 475.015,270.496 475.015,266.157ZM453.893,265.404L453.893,231.269C453.893,220.143 458.985,214.108 469.737,214.108C479.92,214.108 485.198,220.143 485.198,230.704L485.198,231.928L475.393,231.928L475.393,230.045C475.393,225.328 473.319,223.539 470.017,223.539C466.341,223.539 464.267,225.328 464.267,231.648L464.267,244.282C466.341,240.415 469.546,238.528 473.885,238.528C481.522,238.528 485.389,243.904 485.389,253.615L485.389,265.404C485.389,275.965 479.826,282 469.639,282C459.456,282 453.893,275.965 453.893,265.404Z" style="fill:white;fill-rule:nonzero;"/>
                    <path d="M510.004,265.404L510.004,260.22L519.813,260.22L519.813,266.157C519.813,270.874 521.887,272.57 525.189,272.57C528.487,272.57 530.561,270.874 530.561,266.157L530.561,251.354C530.561,246.641 528.487,244.848 525.189,244.848C521.887,244.848 519.813,246.641 519.813,251.354L519.813,251.92L510.004,251.92L511.891,215.052L539.239,215.052L539.239,224.482L521.133,224.482L520.284,240.228C522.171,237.117 525.282,235.417 529.43,235.417C537.067,235.417 540.934,240.793 540.934,250.504L540.934,265.404C540.934,275.965 535.652,282 525.469,282C515.287,282 510.004,275.965 510.004,265.404Z" style="fill:white;fill-rule:nonzero;"/>
                    <path d="M564.609,218.235C561.726,218.235 559.384,220.581 559.384,223.465C559.384,226.348 561.726,228.69 564.609,228.69C567.492,228.69 569.839,226.348 569.839,223.465C569.839,220.581 567.492,218.235 564.609,218.235ZM564.609,232.854C559.433,232.854 555.22,228.641 555.22,223.465C555.22,218.284 559.433,214.071 564.609,214.071C569.79,214.071 574.003,218.284 574.003,223.465C574.003,228.641 569.79,232.854 564.609,232.854Z" style="fill:white;fill-rule:nonzero;"/>
                </g>
            </g>
        </g>
    </g>
</svg>
