<?xml version="1.0" encoding="UTF-8" standalone="no"?>
<!DOCTYPE svg PUBLIC "-//W3C//DTD SVG 1.1//EN" "http://www.w3.org/Graphics/SVG/1.1/DTD/svg11.dtd">
<svg width="100%" height="100%" viewBox="0 0 300 150" version="1.1" xmlns="http://www.w3.org/2000/svg" xmlns:xlink="http://www.w3.org/1999/xlink" xml:space="preserve" xmlns:serif="http://www.serif.com/" style="fill-rule:evenodd;clip-rule:evenodd;stroke-linejoin:round;stroke-miterlimit:2;">
    <g transform="matrix(3.82339,0,0,3.82339,-77.5973,-765.228)">
        <path d="M79.871,213.407L79.871,214.338L87.307,214.338L87.307,215.128L79.871,215.128L79.871,216.06L87.307,216.06L87.307,216.85L78.912,216.85L78.912,212.617L87.307,212.617L87.307,213.407L79.871,213.407ZM77.67,212.617L77.67,216.85L76.71,216.85L76.71,215.199L70.967,215.199L70.967,216.85L70.008,216.85L70.008,212.617L70.967,212.617L70.967,214.268L76.71,214.268L76.71,212.617L77.67,212.617ZM60.963,213.661C60.963,212.982 61.329,212.617 62.008,212.617L68.78,212.617L68.78,213.548L62.092,213.548C61.982,213.548 61.923,213.607 61.923,213.717L61.923,215.749C61.923,215.859 61.982,215.919 62.092,215.919L68.78,215.919L68.78,216.85L62.008,216.85C61.329,216.85 60.963,216.484 60.963,215.806L60.963,213.661ZM51.636,213.661C51.636,212.982 52.002,212.617 52.681,212.617L59.623,212.617L59.623,213.407L52.765,213.407C52.655,213.407 52.596,213.466 52.596,213.576L52.596,214.169C52.596,214.279 52.655,214.338 52.765,214.338L58.72,214.338C59.399,214.338 59.764,214.704 59.764,215.382L59.764,215.806C59.764,216.484 59.399,216.85 58.72,216.85L51.778,216.85L51.778,216.06L58.635,216.06C58.745,216.06 58.804,216 58.804,215.89L58.804,215.298C58.804,215.188 58.745,215.128 58.635,215.128L52.681,215.128C52.002,215.128 51.636,214.763 51.636,214.084L51.636,213.661ZM49.351,214.804C49.461,214.804 49.52,214.745 49.52,214.635L49.52,213.717C49.52,213.607 49.461,213.548 49.351,213.548L43.311,213.548L43.311,214.804L49.351,214.804ZM49.52,215.411C50.082,215.647 50.477,216.202 50.479,216.85L49.52,216.85C49.52,216.088 49.167,215.735 48.405,215.735L43.311,215.735L43.311,216.85L42.352,216.85L42.352,212.617L49.435,212.617C50.114,212.617 50.479,212.982 50.479,213.661L50.479,214.368C50.479,215.018 50.144,215.381 49.52,215.411M39.996,215.919C40.106,215.919 40.165,215.859 40.165,215.749L40.165,213.717C40.165,213.607 40.106,213.548 39.996,213.548L34.281,213.548C34.171,213.548 34.112,213.607 34.112,213.717L34.112,215.749C34.112,215.859 34.171,215.919 34.281,215.919L39.996,215.919ZM34.196,216.85C33.517,216.85 33.152,216.484 33.152,215.806L33.152,213.661C33.152,212.982 33.517,212.617 34.196,212.617L40.08,212.617C40.759,212.617 41.124,212.982 41.124,213.661L41.124,215.806C41.124,216.484 40.759,216.85 40.08,216.85L34.196,216.85ZM30.979,213.717L30.979,214.635C30.979,214.745 30.92,214.804 30.81,214.804L24.771,214.804L24.771,213.548L30.81,213.548C30.92,213.548 30.979,213.607 30.979,213.717M30.894,215.735C31.573,215.735 31.939,215.37 31.939,214.691L31.939,213.661C31.939,212.982 31.573,212.617 30.894,212.617L23.811,212.617L23.811,216.85L24.771,216.85L24.771,215.735L30.894,215.735Z" style="fill:white;fill-rule:nonzero;"/>
    </g>
    <g transform="matrix(3.82339,0,0,3.82339,-77.5973,-726.791)">
        <rect x="23.811" y="209.072" width="71.433" height="1.27" style="fill:white;"/>
    </g>
    <g transform="matrix(3.82339,0,0,3.82339,-77.5973,-687.919)">
        <path d="M23.811,202.631L26.173,202.631L26.173,203.325L24.578,203.325L24.578,204.293L26.039,204.293L26.039,204.943L24.578,204.943L24.578,206L26.173,206L26.173,206.616L23.811,206.616L23.811,202.631Z" style="fill:white;fill-rule:nonzero;"/>
    </g>
    <g transform="matrix(3.82339,0,0,3.82339,-77.5973,-687.919)">
        <path d="M27.875,204.595L26.817,202.631L27.657,202.631L28.362,203.963L29.067,202.631L29.839,202.631L28.776,204.595L29.868,206.616L29.028,206.616L28.295,205.228L27.556,206.616L26.789,206.616L27.875,204.595Z" style="fill:white;fill-rule:nonzero;"/>
    </g>
    <g transform="matrix(3.82339,0,0,3.82339,-77.5973,-687.919)">
        <path d="M31.263,203.325L31.263,204.584L31.845,204.584C32.259,204.584 32.36,204.495 32.36,203.941C32.36,203.432 32.242,203.325 31.845,203.325L31.263,203.325ZM30.496,202.631L31.963,202.631C32.797,202.631 33.149,202.967 33.149,203.913C33.149,204.943 32.786,205.234 31.952,205.234L31.263,205.234L31.263,206.616L30.496,206.616L30.496,202.631Z" style="fill:white;fill-rule:nonzero;"/>
    </g>
    <g transform="matrix(3.82339,0,0,3.82339,-77.5973,-687.919)">
        <path d="M33.912,202.631L36.274,202.631L36.274,203.325L34.679,203.325L34.679,204.293L36.14,204.293L36.14,204.943L34.679,204.943L34.679,206L36.274,206L36.274,206.616L33.912,206.616L33.912,202.631Z" style="fill:white;fill-rule:nonzero;"/>
    </g>
    <g transform="matrix(3.82339,0,0,3.82339,-77.5973,-687.919)">
        <path d="M37.871,203.325L37.871,204.584L38.442,204.584C38.828,204.584 38.968,204.529 38.968,203.941C38.968,203.403 38.834,203.325 38.42,203.325L37.871,203.325ZM37.104,202.631L38.543,202.631C39.377,202.631 39.757,202.928 39.757,203.913C39.757,204.652 39.533,204.993 39.086,205.099L39.875,206.616L39.03,206.616L38.347,205.234L37.871,205.234L37.871,206.616L37.104,206.616L37.104,202.631Z" style="fill:white;fill-rule:nonzero;"/>
    </g>
    <g transform="matrix(3.82339,0,0,3.82339,-77.5973,-687.919)">
        <rect x="40.598" y="202.631" width="0.767" height="3.985" style="fill:white;"/>
    </g>
    <g transform="matrix(3.82339,0,0,3.82339,-77.5973,-687.919)">
        <path d="M42.34,202.631L44.702,202.631L44.702,203.325L43.107,203.325L43.107,204.293L44.568,204.293L44.568,204.943L43.107,204.943L43.107,206L44.702,206L44.702,206.616L42.34,206.616L42.34,202.631Z" style="fill:white;fill-rule:nonzero;"/>
    </g>
    <g transform="matrix(3.82339,0,0,3.82339,-77.5973,-687.919)">
        <path d="M45.532,202.631L46.344,202.631L47.653,205.189L47.653,202.631L48.37,202.631L48.37,206.616L47.608,206.616L46.248,203.963L46.248,206.616L45.532,206.616L45.532,202.631Z" style="fill:white;fill-rule:nonzero;"/>
    </g>
    <g transform="matrix(3.82339,0,0,3.82339,-77.5973,-687.923)">
        <path d="M49.194,204.613C49.194,202.984 49.552,202.564 50.733,202.564C51.897,202.564 52.082,203.046 52.127,204.132L51.383,204.132C51.354,203.443 51.243,203.258 50.733,203.258C50.089,203.258 49.994,203.449 49.994,204.602C49.994,205.917 50.089,206.068 50.733,206.068C51.243,206.068 51.354,205.867 51.383,205.167L52.127,205.167C52.082,206.242 51.78,206.684 50.733,206.684C49.496,206.684 49.194,206.18 49.194,204.613" style="fill:white;fill-rule:nonzero;"/>
    </g>
    <g transform="matrix(3.82339,0,0,3.82339,-77.5973,-687.919)">
        <path d="M52.907,202.631L55.269,202.631L55.269,203.325L53.674,203.325L53.674,204.293L55.135,204.293L55.135,204.943L53.674,204.943L53.674,206L55.269,206L55.269,206.616L52.907,206.616L52.907,202.631Z" style="fill:white;fill-rule:nonzero;"/>
    </g>
</svg>
