<?xml version="1.0" encoding="UTF-8" standalone="no"?>
<!DOCTYPE svg PUBLIC "-//W3C//DTD SVG 1.1//EN" "http://www.w3.org/Graphics/SVG/1.1/DTD/svg11.dtd">
<svg width="100%" height="100%" viewBox="0 0 300 150" version="1.1" xmlns="http://www.w3.org/2000/svg" xmlns:xlink="http://www.w3.org/1999/xlink" xml:space="preserve" xmlns:serif="http://www.serif.com/" style="fill-rule:evenodd;clip-rule:evenodd;stroke-linejoin:round;stroke-miterlimit:2;">
    <g transform="matrix(0.0483801,0,0,0.0483801,150,75)">
        <g transform="matrix(1,0,0,1,-2893.75,-1129.17)">
            <g transform="matrix(4.16667,0,0,4.16667,0,0)">
                <rect x="323.871" y="338.204" width="20.615" height="20.615" style="fill:white;fill-rule:nonzero;"/>
                <path d="M295.521,527.697C292.662,527.697 290.007,527.166 287.63,526.12C285.232,525.069 283.144,523.521 281.425,521.52C279.728,519.569 278.386,517.129 277.438,514.275C276.508,511.471 276.036,508.253 276.036,504.711C276.036,501.379 276.485,498.28 277.371,495.499C278.27,492.677 279.603,490.215 281.331,488.179C283.077,486.112 285.252,484.486 287.791,483.351C290.299,482.218 293.214,481.64 296.449,481.64C299.368,481.64 302,482.117 304.272,483.058C306.561,483.999 308.577,485.286 310.262,486.885L311.179,487.757L309.306,490.296L309.227,490.373C309.028,490.571 308.849,490.733 308.673,490.865C308.321,491.14 307.848,491.289 307.293,491.289C306.66,491.289 306.011,491.015 305.251,490.424C304.835,490.1 304.254,489.733 303.473,489.299C302.727,488.893 301.787,488.511 300.688,488.168C299.588,487.836 298.229,487.665 296.66,487.665C294.47,487.665 292.506,488.054 290.824,488.824C289.178,489.576 287.763,490.681 286.618,492.107C285.464,493.557 284.564,495.355 283.945,497.443C283.315,499.578 282.995,502.022 282.995,504.711C282.995,507.521 283.32,510.021 283.963,512.141C284.598,514.236 285.498,516.009 286.638,517.41C287.747,518.785 289.117,519.848 290.713,520.573C292.324,521.301 294.141,521.671 296.114,521.671C297.969,521.671 299.519,521.456 300.721,521.031C301.99,520.591 303.022,520.117 303.795,519.619C304.653,519.072 305.275,518.612 305.701,518.213C306.275,517.695 307.027,517.119 307.926,517.119C308.777,517.119 309.496,517.492 309.953,518.171L311.687,520.296L311,521.193C310.284,522.128 309.365,523.015 308.268,523.83C307.175,524.643 305.954,525.337 304.641,525.891C303.31,526.472 301.857,526.922 300.339,527.227C298.809,527.537 297.187,527.697 295.521,527.697Z" style="fill:white;fill-rule:nonzero;"/>
                <path d="M343.398,487.665C341.136,487.665 339.132,488.061 337.439,488.842C335.794,489.613 334.396,490.73 333.29,492.158C332.158,493.62 331.29,495.419 330.711,497.502C330.116,499.635 329.815,502.06 329.815,504.711C329.815,507.388 330.116,509.822 330.711,511.942C331.289,514.007 332.156,515.793 333.288,517.252C334.394,518.663 335.791,519.76 337.434,520.51C339.109,521.28 341.115,521.671 343.398,521.671C345.675,521.671 347.683,521.28 349.362,520.51C351.007,519.759 352.403,518.66 353.511,517.246C354.641,515.792 355.5,514.009 356.062,511.952C356.644,509.822 356.938,507.386 356.938,504.711C356.938,502.061 356.643,499.634 356.062,497.496C355.499,495.417 354.639,493.621 353.506,492.158C352.402,490.73 351.004,489.613 349.349,488.837C347.66,488.061 345.654,487.665 343.398,487.665ZM343.398,527.697C340.216,527.697 337.31,527.149 334.76,526.069C332.177,524.959 329.976,523.37 328.21,521.343C326.442,519.324 325.083,516.869 324.172,514.044C323.274,511.287 322.817,508.146 322.817,504.711C322.817,501.28 323.273,498.131 324.173,495.351C325.083,492.518 326.442,490.054 328.212,488.03C329.987,485.997 332.187,484.403 334.75,483.293C337.31,482.196 340.218,481.64 343.398,481.64C346.578,481.64 349.486,482.196 352.04,483.292C354.604,484.402 356.798,485.995 358.566,488.033C360.312,490.049 361.662,492.511 362.582,495.351C363.482,498.131 363.938,501.28 363.938,504.711C363.938,508.146 363.481,511.287 362.581,514.049C361.663,516.877 360.312,519.33 358.566,521.341C356.809,523.37 354.613,524.96 352.041,526.065C349.486,527.149 346.58,527.697 343.398,527.697Z" style="fill:white;fill-rule:nonzero;"/>
                <path d="M381.614,527.151L381.614,489.475L377.05,489.187C375.155,489.038 374.488,487.804 374.488,486.699L374.488,483.617L381.614,483.617L381.614,479.736C381.614,477.198 381.952,474.922 382.618,472.973C383.294,470.98 384.277,469.281 385.539,467.925C386.807,466.56 388.358,465.52 390.149,464.836C391.916,464.17 393.853,463.835 395.912,463.835C396.834,463.835 397.803,463.922 398.793,464.093C399.771,464.264 400.659,464.51 401.432,464.83L402.382,465.219L402.192,468.189C402.119,469.158 401.401,470.118 399.961,470.118C399.577,470.118 399.055,470.074 398.397,469.984C397.865,469.908 397.216,469.87 396.458,469.87C395.232,469.87 394.109,470.048 393.119,470.396C392.158,470.735 391.357,471.255 390.669,471.985C389.977,472.727 389.423,473.735 389.027,474.972C388.612,476.266 388.402,477.914 388.402,479.871L388.402,483.617L402.025,483.617L402.025,489.48L388.483,489.48L388.483,527.151L381.614,527.151Z" style="fill:white;fill-rule:nonzero;"/>
                <path d="M417.214,527.151L417.214,489.475L412.65,489.187C410.755,489.038 410.088,487.804 410.088,486.699L410.088,483.617L417.214,483.617L417.214,479.736C417.214,477.198 417.552,474.922 418.218,472.973C418.895,470.98 419.878,469.281 421.14,467.925C422.409,466.56 423.96,465.52 425.751,464.836C427.516,464.17 429.453,463.835 431.513,463.835C432.434,463.835 433.403,463.922 434.393,464.093C435.377,464.264 436.265,464.512 437.034,464.83L437.982,465.221L437.792,468.189C437.719,469.158 437.001,470.118 435.561,470.118C435.18,470.118 434.655,470.074 433.997,469.984C433.466,469.908 432.817,469.87 432.06,469.87C430.833,469.87 429.71,470.048 428.72,470.396C427.759,470.735 426.957,471.255 426.27,471.985C425.577,472.728 425.024,473.733 424.63,474.968C424.212,476.266 424.002,477.914 424.002,479.871L424.002,483.617L437.626,483.617L437.626,489.48L424.085,489.48L424.085,527.151L417.214,527.151Z" style="fill:white;fill-rule:nonzero;"/>
                <path d="M479.894,499.063C479.792,497.547 479.523,496.155 479.092,494.912C478.537,493.302 477.778,491.977 476.772,490.86C475.785,489.776 474.625,488.962 473.232,488.378C471.85,487.798 470.28,487.503 468.566,487.503C466.602,487.503 464.821,487.809 463.272,488.411C461.757,489.015 460.427,489.886 459.327,490.998C458.204,492.143 457.282,493.531 456.588,495.118C456.067,496.313 455.671,497.634 455.404,499.063L479.894,499.063ZM468.797,527.697C465.74,527.697 462.914,527.156 460.396,526.089C457.833,525.003 455.614,523.408 453.8,521.348C451.984,519.296 450.568,516.767 449.592,513.833C448.625,510.94 448.134,507.585 448.134,503.864C448.134,500.704 448.592,497.749 449.495,495.075C450.405,492.371 451.748,489.992 453.488,488.008C455.241,486.023 457.407,484.448 459.928,483.32C462.477,482.205 465.359,481.64 468.504,481.64C471.034,481.64 473.421,482.089 475.601,482.973C477.807,483.866 479.737,485.181 481.338,486.88C482.929,488.558 484.197,490.659 485.101,493.123C485.982,495.545 486.428,498.351 486.428,501.464C486.428,502.436 486.242,503.122 485.841,503.624C485.524,504.02 484.923,504.494 483.86,504.494L455.01,504.494C455.055,507.232 455.401,509.671 456.038,511.754C456.708,513.95 457.666,515.805 458.888,517.27C460.086,518.706 461.552,519.798 463.245,520.518C464.978,521.252 466.948,521.625 469.097,521.625C471.057,521.625 472.763,521.411 474.168,520.987C475.629,520.551 476.848,520.067 477.796,519.548C478.766,519.015 479.554,518.525 480.135,518.091C481.031,517.421 481.712,517.119 482.339,517.119C483.189,517.119 483.91,517.491 484.369,518.167L486.12,520.317L485.398,521.218C484.642,522.163 483.63,523.059 482.393,523.874C481.18,524.671 479.836,525.35 478.397,525.893C476.99,526.434 475.434,526.876 473.781,527.202C472.145,527.531 470.467,527.697 468.797,527.697Z" style="fill:white;fill-rule:nonzero;"/>
                <path d="M531.434,499.063C531.332,497.544 531.064,496.152 530.633,494.914C530.079,493.301 529.321,491.977 528.313,490.86C527.324,489.776 526.165,488.962 524.774,488.378C523.392,487.798 521.822,487.503 520.107,487.503C518.143,487.503 516.362,487.809 514.814,488.411C513.3,489.015 511.97,489.886 510.869,491C509.747,492.143 508.824,493.531 508.131,495.118C507.61,496.312 507.214,497.634 506.946,499.063L531.434,499.063ZM520.339,527.697C517.281,527.697 514.456,527.156 511.938,526.089C509.378,525.005 507.158,523.409 505.343,521.348C503.526,519.296 502.11,516.765 501.134,513.833C500.167,510.937 499.676,507.582 499.676,503.864C499.676,500.704 500.134,497.747 501.038,495.075C501.949,492.366 503.293,489.987 505.031,488.007C506.783,486.025 508.948,484.448 511.471,483.32C514.02,482.205 516.901,481.64 520.046,481.64C522.576,481.64 524.964,482.089 527.143,482.973C529.347,483.866 531.277,485.18 532.88,486.878C534.469,488.554 535.736,490.656 536.642,493.123C537.524,495.545 537.971,498.351 537.971,501.464C537.971,502.435 537.785,503.119 537.387,503.62C537.062,504.023 536.46,504.494 535.4,504.494L506.552,504.494C506.598,507.232 506.943,509.672 507.579,511.754C508.25,513.95 509.21,515.807 510.431,517.27C511.628,518.705 513.093,519.798 514.787,520.518C516.52,521.252 518.489,521.625 520.637,521.625C522.597,521.625 524.303,521.411 525.708,520.987C527.17,520.551 528.39,520.067 529.339,519.548C530.316,519.01 531.104,518.52 531.676,518.091C532.573,517.421 533.254,517.119 533.881,517.119C534.733,517.119 535.454,517.492 535.912,518.168L537.662,520.317L536.94,521.218C536.184,522.163 535.172,523.059 533.935,523.874C532.723,524.671 531.378,525.348 529.937,525.893C528.535,526.434 526.978,526.876 525.323,527.202C523.687,527.531 522.008,527.697 520.339,527.697Z" style="fill:white;fill-rule:nonzero;"/>
                <path d="M841.933,527.827C838.782,527.827 836.02,527.307 833.722,526.283C831.469,525.297 829.407,523.974 827.599,522.353L826.665,521.513L828.356,519.046C828.555,518.703 828.882,518.359 829.249,518.134C829.597,517.89 830.114,517.744 830.717,517.744C831.436,517.744 832.155,518.067 832.979,518.759C833.456,519.153 834.105,519.603 834.903,520.087C835.654,520.554 836.633,520.997 837.82,521.408C838.949,521.809 840.388,522.008 842.108,522.008C843.698,522.008 845.106,521.788 846.292,521.354C847.446,520.931 848.421,520.357 849.191,519.648C849.931,518.952 850.5,518.119 850.87,517.193C851.27,516.233 851.469,515.205 851.469,514.119C851.469,513.033 851.22,512.137 850.732,511.46C850.171,510.695 849.421,510.028 848.505,509.485C847.509,508.898 846.348,508.391 845.061,507.982C843.668,507.524 842.234,507.072 840.781,506.623C839.274,506.174 837.787,505.666 836.378,505.115C834.85,504.533 833.513,503.806 832.303,502.9C831.051,501.974 830.025,500.829 829.264,499.502C828.459,498.098 828.052,496.389 828.052,494.42C828.052,492.735 828.427,491.082 829.165,489.51C829.89,487.959 830.939,486.581 832.28,485.413C833.614,484.25 835.237,483.321 837.105,482.65C838.975,481.981 841.082,481.64 843.366,481.64C846.081,481.64 848.541,482.045 850.681,482.843C852.839,483.652 854.832,484.893 856.611,486.53L857.494,487.344L856,489.682C855.559,490.523 854.774,491.001 853.83,491.001C853.207,491.001 852.543,490.743 851.801,490.214C851.377,489.901 850.796,489.549 850.007,489.122C849.255,488.717 848.352,488.357 847.323,488.053C846.297,487.742 844.996,487.586 843.448,487.586C842.088,487.586 840.85,487.776 839.769,488.153C838.674,488.543 837.741,489.049 837.008,489.656C836.25,490.283 835.692,490.964 835.302,491.738C834.913,492.503 834.725,493.287 834.725,494.143C834.725,495.149 834.957,495.937 835.434,496.549C835.982,497.257 836.73,497.881 837.662,498.405C838.664,498.971 839.83,499.473 841.133,499.897L841.986,500.167C843.099,500.52 844.228,500.879 845.384,501.229C846.806,501.666 848.24,502.168 849.775,502.768C851.285,503.357 852.651,504.105 853.84,504.993C855.082,505.929 856.103,507.08 856.879,508.419C857.679,509.809 858.082,511.498 858.082,513.443C858.082,515.455 857.712,517.359 856.981,519.104C856.258,520.841 855.177,522.383 853.773,523.689C852.368,524.973 850.655,525.991 848.671,526.722C846.708,527.454 844.44,527.827 841.933,527.827Z" style="fill:white;fill-rule:nonzero;"/>
                <rect x="876.101" y="462.91" width="6.883" height="64.241" style="fill:white;fill-rule:nonzero;"/>
                <path d="M931.953,499.063C931.851,497.545 931.583,496.154 931.154,494.911C930.601,493.31 929.84,491.985 928.825,490.86C927.835,489.775 926.675,488.96 925.287,488.378C923.883,487.789 922.355,487.503 920.622,487.503C918.655,487.503 916.877,487.809 915.336,488.411C913.802,489.021 912.504,489.87 911.378,491.001C910.246,492.156 909.328,493.541 908.654,495.11C908.129,496.299 907.73,497.621 907.458,499.063L931.953,499.063ZM920.847,527.697C917.793,527.697 914.969,527.156 912.453,526.089C909.888,525.001 907.666,523.406 905.85,521.349C904.033,519.288 902.62,516.757 901.65,513.831C900.681,510.93 900.189,507.575 900.189,503.864C900.189,500.698 900.648,497.741 901.551,495.073C902.457,492.381 903.798,490.005 905.534,488.012C907.312,486.017 909.478,484.441 911.984,483.32C914.534,482.205 917.415,481.64 920.559,481.64C923.095,481.64 925.485,482.089 927.661,482.973C929.869,483.87 931.8,485.184 933.395,486.88C934.987,488.561 936.253,490.663 937.156,493.123C938.039,495.539 938.488,498.344 938.488,501.464C938.488,502.405 938.299,503.104 937.913,503.605C937.431,504.202 936.765,504.494 935.915,504.494L907.064,504.494C907.11,507.212 907.454,509.654 908.09,511.761C908.787,514.009 909.723,515.814 910.945,517.265C912.137,518.703 913.599,519.796 915.3,520.518C917.028,521.253 918.999,521.625 921.156,521.625C923.117,521.625 924.82,521.411 926.221,520.987C927.672,520.554 928.892,520.069 929.851,519.546C930.813,519.02 931.598,518.53 932.181,518.093C933.086,517.418 933.768,517.119 934.4,517.119C935.231,517.119 935.944,517.482 936.413,518.142L938.179,520.323L937.451,521.224C936.674,522.184 935.665,523.074 934.446,523.875C933.236,524.669 931.895,525.348 930.46,525.891C929.042,526.436 927.486,526.878 925.842,527.202C924.199,527.531 922.518,527.697 920.847,527.697Z" style="fill:white;fill-rule:nonzero;"/>
                <path d="M983.486,499.063C983.384,497.545 983.116,496.154 982.685,494.912C982.126,493.292 981.368,491.967 980.369,490.86C979.404,489.794 978.212,488.959 976.83,488.378C975.452,487.798 973.883,487.503 972.163,487.503C970.199,487.503 968.415,487.809 966.861,488.413C965.348,489.016 964.019,489.888 962.929,490.996C961.81,492.136 960.884,493.526 960.177,495.124C959.661,496.331 959.266,497.654 959.005,499.063L983.486,499.063ZM972.4,527.697C969.342,527.697 966.514,527.156 963.993,526.089C961.447,525.013 959.228,523.418 957.403,521.349C955.59,519.305 954.171,516.778 953.184,513.836C952.221,510.947 951.731,507.592 951.731,503.864C951.731,500.724 952.189,497.769 953.096,495.077C954.007,492.36 955.352,489.98 957.094,488.005C958.83,486.03 960.995,484.453 963.524,483.32C966.073,482.205 968.956,481.64 972.104,481.64C974.623,481.64 977.009,482.088 979.198,482.971C981.396,483.862 983.325,485.176 984.933,486.878C986.522,488.549 987.788,490.651 988.696,493.123C989.576,495.549 990.021,498.354 990.021,501.464C990.021,502.142 989.954,503 989.426,503.64C989.117,504.023 988.515,504.494 987.454,504.494L958.608,504.494C958.654,507.248 959,509.687 959.639,511.749C960.302,513.94 961.258,515.796 962.484,517.275C963.708,518.729 965.136,519.793 966.843,520.517C968.579,521.252 970.546,521.625 972.689,521.625C974.646,521.625 976.353,521.411 977.763,520.987C979.236,520.546 980.456,520.064 981.392,519.551C982.391,518.999 983.178,518.509 983.734,518.093C984.65,517.41 985.306,517.119 985.933,517.119C986.81,517.119 987.536,517.502 987.984,518.198L989.714,520.311L988.998,521.212C988.258,522.146 987.245,523.041 985.992,523.872C984.783,524.668 983.438,525.348 981.989,525.893C980.59,526.434 979.032,526.876 977.373,527.202C975.745,527.531 974.069,527.697 972.4,527.697Z" style="fill:white;fill-rule:nonzero;"/>
                <path d="M1013.28,516.08C1014.67,518.093 1016.19,519.528 1017.82,520.349C1019.57,521.224 1021.6,521.671 1023.86,521.671C1026.1,521.671 1028.07,521.263 1029.73,520.465C1031.38,519.668 1032.77,518.525 1033.87,517.067C1035.01,515.578 1035.88,513.759 1036.46,511.652C1037.06,509.475 1037.36,507.054 1037.36,504.461C1037.36,498.573 1036.31,494.235 1034.22,491.564C1032.2,488.97 1029.31,487.709 1025.41,487.709C1022.93,487.709 1020.65,488.363 1018.63,489.658C1016.63,490.934 1014.83,492.712 1013.28,494.947L1013.28,516.08ZM1006.39,542L1006.39,482.31L1010.03,482.31C1010.68,482.31 1011.25,482.474 1011.72,482.798C1012.14,483.081 1012.66,483.65 1012.72,484.729L1012.89,487.65C1014.28,486.23 1015.81,485.022 1017.45,484.038C1020.16,482.418 1023.22,481.598 1026.56,481.598C1032.17,481.598 1036.6,483.581 1039.73,487.492C1042.8,491.301 1044.35,497.011 1044.35,504.461C1044.35,507.671 1043.93,510.697 1043.1,513.455C1042.25,516.275 1040.98,518.765 1039.33,520.848C1037.66,522.956 1035.57,524.641 1033.11,525.857C1030.69,527.075 1027.85,527.697 1024.66,527.697C1021.58,527.697 1018.87,527.121 1016.6,525.988C1015.41,525.395 1014.3,524.643 1013.28,523.744L1013.28,542L1006.39,542Z" style="fill:white;fill-rule:nonzero;"/>
                <path d="M1071.69,527.827C1068.55,527.827 1065.78,527.307 1063.47,526.284C1061.23,525.302 1059.17,523.978 1057.36,522.353L1056.43,521.515L1058.11,519.048C1058.32,518.692 1058.64,518.357 1059,518.134C1059.34,517.892 1059.86,517.744 1060.47,517.744C1061.2,517.744 1061.92,518.068 1062.74,518.762C1063.24,519.173 1063.89,519.622 1064.65,520.087C1065.41,520.554 1066.4,520.999 1067.58,521.408C1068.71,521.809 1070.15,522.008 1071.86,522.008C1073.46,522.008 1074.86,521.788 1076.04,521.354C1077.2,520.931 1078.18,520.361 1078.94,519.653C1079.68,518.961 1080.25,518.129 1080.63,517.185C1081.02,516.233 1081.22,515.202 1081.22,514.119C1081.22,513.004 1080.98,512.138 1080.49,511.47C1079.93,510.697 1079.17,510.029 1078.26,509.485C1077.27,508.899 1076.12,508.393 1074.83,507.982C1073.42,507.526 1072,507.074 1070.53,506.623C1069.08,506.189 1067.59,505.681 1066.13,505.117C1064.61,504.531 1063.24,503.785 1062.06,502.898C1060.81,501.974 1059.78,500.829 1059.02,499.502C1058.22,498.117 1057.81,496.405 1057.81,494.42C1057.81,492.71 1058.19,491.054 1058.93,489.5C1059.64,487.972 1060.69,486.591 1062.05,485.411C1063.38,484.249 1065,483.32 1066.86,482.65C1068.72,481.981 1070.82,481.64 1073.12,481.64C1075.84,481.64 1078.3,482.045 1080.43,482.843C1082.6,483.652 1084.59,484.893 1086.36,486.533L1087.24,487.345L1085.76,489.674C1085.32,490.52 1084.54,491.001 1083.58,491.001C1082.96,491.001 1082.32,490.753 1081.56,490.22C1081.12,489.893 1080.54,489.541 1079.77,489.12C1079.02,488.72 1078.11,488.36 1077.08,488.053C1076.06,487.742 1074.76,487.586 1073.21,487.586C1071.85,487.586 1070.61,487.776 1069.53,488.153C1068.43,488.541 1067.49,489.048 1066.76,489.656C1066.01,490.274 1065.46,490.954 1065.07,491.733C1064.67,492.508 1064.48,493.314 1064.48,494.143C1064.48,495.149 1064.71,495.937 1065.18,496.552C1065.74,497.256 1066.49,497.884 1067.42,498.407C1068.4,498.964 1069.57,499.466 1070.89,499.899L1071.72,500.163C1072.84,500.517 1073.97,500.877 1075.14,501.227C1076.58,501.673 1078.05,502.189 1079.53,502.768C1081.03,503.351 1082.39,504.099 1083.59,504.993C1084.84,505.928 1085.87,507.084 1086.64,508.426C1087.44,509.822 1087.84,511.511 1087.84,513.443C1087.84,515.458 1087.47,517.366 1086.73,519.109C1085.99,520.872 1084.91,522.416 1083.52,523.694C1082.12,524.977 1080.41,525.995 1078.43,526.722C1076.46,527.455 1074.19,527.827 1071.69,527.827Z" style="fill:white;fill-rule:nonzero;"/>
                <path d="M1107.59,527.776C1106.11,527.776 1104.84,527.263 1103.82,526.25C1102.8,525.256 1102.27,523.949 1102.27,522.474C1102.27,521.752 1102.41,521.051 1102.69,520.388C1102.93,519.772 1103.31,519.189 1103.81,518.693C1104.29,518.221 1104.83,517.843 1105.45,517.56C1106.11,517.265 1106.82,517.119 1107.59,517.119C1108.32,517.119 1109,517.257 1109.67,517.541C1110.33,517.833 1110.89,518.216 1111.36,518.686C1111.82,519.14 1112.2,519.699 1112.5,520.348C1112.8,521.051 1112.94,521.752 1112.94,522.474C1112.94,523.232 1112.79,523.942 1112.51,524.589C1112.2,525.253 1111.81,525.804 1111.36,526.251C1110.88,526.732 1110.31,527.116 1109.65,527.384C1108.99,527.649 1108.32,527.776 1107.59,527.776Z" style="fill:white;fill-rule:nonzero;"/>
                <rect x="100.603" y="433.234" width="1187.77" height="3.092" style="fill:white;fill-rule:nonzero;"/>
                <path d="M44.874,400.911L44.874,306.423L0,306.423L0,294.141L103.191,294.141L103.191,306.423L58.22,306.423L58.22,400.911L44.874,400.911Z" style="fill:white;fill-rule:nonzero;"/>
                <path d="M125.767,355.979L125.767,394.374L112.809,394.374L112.809,311.782L125.767,311.782L125.767,343.889L183.795,343.889L183.795,311.782L196.657,311.782L196.657,394.374L183.795,394.374L183.795,355.979L125.767,355.979Z" style="fill:white;fill-rule:nonzero;"/>
                <path d="M218.959,394.374L218.959,311.782L296.425,311.782L296.425,323.87L231.918,323.87L231.918,344.47L274.279,344.47L274.279,356.365L231.918,356.365L231.918,382.478L300.003,382.478L300.003,394.374L218.959,394.374Z" style="fill:white;fill-rule:nonzero;"/>
                <path d="M478.862,366.868L489.5,374.799C484.601,384.083 477.896,391.226 469.385,396.224C460.874,401.214 451.203,403.716 440.371,403.716C424.382,403.716 411.181,398.442 400.768,387.906C390.355,377.358 385.148,364 385.148,347.816C385.148,331.568 390.371,318.171 400.816,307.636C411.261,297.088 424.446,291.819 440.371,291.819C450.236,291.819 459.231,293.98 467.354,298.299C475.478,302.62 482.086,308.777 487.18,316.771L476.058,324.702C472.705,318.319 467.87,313.322 461.551,309.711C455.232,306.101 448.173,304.296 440.371,304.296C428.379,304.296 418.45,308.409 410.584,316.623C402.718,324.85 398.785,335.244 398.785,347.816C398.785,360.389 402.718,370.769 410.584,378.957C418.45,387.146 428.379,391.24 440.371,391.24C448.753,391.24 456.2,389.177 462.712,385.05C469.224,380.924 474.608,374.863 478.862,366.868Z" style="fill:white;fill-rule:nonzero;"/>
                <path d="M556.664,384.895C567.689,384.895 576.684,381.916 583.646,375.952C590.61,369.988 594.092,362.393 594.092,353.173C594.092,344.018 590.594,336.443 583.598,330.447C576.602,324.451 567.625,321.452 556.664,321.452C545.704,321.452 536.757,324.437 529.827,330.395C522.895,336.366 519.43,343.954 519.43,353.173C519.43,362.393 522.895,369.988 529.827,375.952C536.757,381.916 545.704,384.895 556.664,384.895ZM556.664,396.985C541.964,396.985 529.875,392.826 520.396,384.509C510.919,376.191 506.181,365.746 506.181,353.173C506.181,340.537 510.903,330.111 520.348,321.884C529.795,313.67 541.9,309.556 556.664,309.556C571.558,309.556 583.727,313.652 593.173,321.839C602.619,330.027 607.341,340.472 607.341,353.173C607.341,365.81 602.603,376.275 593.124,384.554C583.646,392.845 571.494,396.985 556.664,396.985Z" style="fill:white;fill-rule:nonzero;"/>
                <path d="M639.308,356.365L639.308,394.374L626.348,394.374L626.348,311.782L702.654,311.782L702.654,323.87L639.308,323.87L639.308,344.47L680.217,344.47L680.217,356.365L639.308,356.365Z" style="fill:white;fill-rule:nonzero;"/>
                <path d="M734.225,356.365L734.225,394.374L721.265,394.374L721.265,311.782L797.571,311.782L797.571,323.87L734.225,323.87L734.225,344.47L775.134,344.47L775.134,356.365L734.225,356.365Z" style="fill:white;fill-rule:nonzero;"/>
                <path d="M820.142,394.374L820.142,311.782L897.602,311.782L897.602,323.87L833.102,323.87L833.102,344.47L875.462,344.47L875.462,356.365L833.102,356.365L833.102,382.478L901.186,382.478L901.186,394.374L820.142,394.374Z" style="fill:white;fill-rule:nonzero;"/>
                <path d="M921.542,394.374L921.542,311.782L999.009,311.782L999.009,323.87L934.502,323.87L934.502,344.47L976.861,344.47L976.861,356.365L934.502,356.365L934.502,382.478L1002.59,382.478L1002.59,394.374L921.542,394.374Z" style="fill:white;fill-rule:nonzero;"/>
                <path d="M1110.08,388.629L1165.99,388.629C1172.04,388.629 1176.82,386.836 1180.3,383.264C1183.78,379.68 1185.52,374.799 1185.52,368.609C1185.52,362.484 1183.78,357.617 1180.3,354.005C1176.82,350.395 1172.04,348.589 1165.99,348.589L1110.08,348.589L1110.08,388.629ZM1110.08,336.308L1161.15,336.308C1166.76,336.308 1171.05,335.037 1174.01,332.484C1176.98,329.944 1178.46,326.281 1178.46,321.51C1178.46,316.482 1177.02,312.71 1174.16,310.195C1171.28,307.68 1166.95,306.423 1161.15,306.423L1110.08,306.423L1110.08,336.308ZM1096.83,400.911L1096.83,294.141L1159.99,294.141C1170.5,294.141 1178.44,296.385 1183.83,300.866C1189.21,305.346 1191.9,311.968 1191.9,320.737C1191.9,324.991 1191.07,328.796 1189.39,332.148C1187.71,335.501 1185.33,338.209 1182.23,340.273C1187.91,343.561 1192.19,347.591 1195.1,352.362C1198,357.132 1199.45,362.612 1199.45,368.803C1199.45,378.668 1196.21,386.488 1189.72,392.252C1183.25,398.029 1174.46,400.911 1163.37,400.911L1096.83,400.911Z" style="fill:white;fill-rule:nonzero;"/>
                <path d="M1236.28,362.458L1268.58,362.458L1252.53,330.834L1236.28,362.458ZM1206.4,394.374L1248.37,311.782L1256.49,311.782L1298.85,394.374L1285.02,394.374L1274.29,373.387L1230.67,373.387L1220.03,394.374L1206.4,394.374Z" style="fill:white;fill-rule:nonzero;"/>
                <path d="M1338.49,394.374L1338.49,352.207L1300.87,311.782L1317.51,311.782L1344.88,341.085L1371.76,311.782L1388.98,311.782L1351.16,352.014L1351.16,394.374L1338.49,394.374Z" style="fill:white;fill-rule:nonzero;"/>
                <path d="M603.055,527.151L606.409,498.691C606.573,497.407 606.652,496.264 606.652,495.184C606.652,492.671 606.197,490.766 605.297,489.521C604.497,488.418 603.2,487.882 601.335,487.882C600,487.882 598.609,488.234 597.2,488.928C595.742,489.663 594.295,490.732 592.911,492.095C591.495,493.481 590.141,495.195 588.881,497.192C587.635,499.172 586.521,501.412 585.568,503.852L582.868,527.151L576.013,527.151L581.42,482.186L584.503,482.186C586.245,482.186 587.37,483.346 587.37,485.142L586.754,491.286C586.972,490.993 587.191,490.707 587.413,490.427C588.883,488.571 590.447,486.987 592.058,485.724C593.691,484.428 595.418,483.418 597.181,482.727C598.991,482.032 600.826,481.68 602.643,481.68C606.212,481.68 608.963,482.905 610.82,485.319C612.587,487.614 613.482,490.875 613.482,495.009C613.482,495.228 613.46,495.919 613.46,495.919C613.443,496.289 613.402,496.818 613.324,497.563C613.253,498.267 613.15,499.26 613.009,500.542C612.865,501.831 611.468,513.924 611.468,513.924C611.089,517.203 610.614,521.189 610.052,525.888L609.902,527.151L603.055,527.151Z" style="fill:white;fill-rule:nonzero;"/>
                <path d="M649.251,487.541C647.245,487.541 645.419,487.967 643.823,488.808C642.183,489.678 640.7,490.855 639.421,492.309C638.132,493.777 637.031,495.514 636.149,497.471C635.526,498.861 635.012,500.305 634.613,501.785C637.351,501.448 639.687,501.081 641.712,500.67C644.17,500.181 646.331,499.64 648.141,499.061C649.816,498.534 651.179,497.951 652.198,497.33C653.16,496.749 653.918,496.142 654.455,495.522C654.928,494.978 655.245,494.42 655.398,493.865C655.577,493.23 655.667,492.567 655.667,491.889C655.667,491.485 655.564,491.013 655.362,490.487C655.173,490.006 654.857,489.562 654.397,489.138C653.918,488.709 653.253,488.327 652.437,488.018C651.61,487.701 650.541,487.541 649.251,487.541ZM642.841,527.697C640.32,527.697 638.038,527.269 636.06,526.427C634.06,525.579 632.344,524.342 630.962,522.753C629.598,521.192 628.551,519.273 627.85,517.054C627.161,514.891 626.811,512.44 626.811,509.774C626.811,507.589 627.033,505.352 627.47,503.125C627.913,500.902 628.574,498.736 629.435,496.687C630.315,494.605 631.404,492.654 632.671,490.888C633.955,489.079 635.458,487.475 637.135,486.127C638.836,484.77 640.724,483.691 642.752,482.918C644.818,482.126 647.076,481.724 649.463,481.724C651.689,481.724 653.622,482.05 655.209,482.691C656.787,483.334 658.103,484.158 659.123,485.142C660.155,486.133 660.917,487.24 661.381,488.431C661.839,489.582 662.074,490.705 662.074,491.763C662.074,493.046 661.897,494.289 661.549,495.458C661.187,496.682 660.538,497.851 659.623,498.932C658.737,499.969 657.546,500.953 656.081,501.861C654.64,502.75 652.84,503.541 650.581,504.276C648.428,504.982 645.826,505.622 642.851,506.178C640.225,506.679 637.197,507.122 633.628,507.526C633.617,507.705 633.607,507.883 633.597,508.061C633.573,508.602 633.558,509.148 633.558,509.692C633.558,513.534 634.409,516.535 636.088,518.616C637.718,520.642 640.16,521.625 643.557,521.625C644.913,521.625 646.143,521.481 647.212,521.193C648.319,520.89 649.271,520.522 650.114,520.068C650.989,519.598 651.755,519.104 652.39,518.603C653.095,518.059 653.707,517.542 654.246,517.061C654.828,516.533 655.346,516.088 655.774,515.754C656.438,515.231 657.111,514.965 657.773,514.965C658.536,514.965 659.215,515.28 659.737,515.877L661.507,517.96L660.627,518.892C659.212,520.393 657.811,521.71 656.462,522.804C655.073,523.918 653.654,524.844 652.241,525.561C650.783,526.292 649.273,526.837 647.75,527.176C646.237,527.526 644.628,527.697 642.841,527.697Z" style="fill:white;fill-rule:nonzero;"/>
                <path d="M685.062,527.151L673.033,482.31L677.979,482.31C678.937,482.31 679.543,482.704 679.882,483.035C680.311,483.476 680.569,483.941 680.682,484.448L688.927,516.325L705.214,484.116C705.437,483.624 705.807,483.178 706.288,482.843C706.788,482.494 707.369,482.31 707.966,482.31L713.306,482.31L690.324,527.151L685.062,527.151Z" style="fill:white;fill-rule:nonzero;"/>
                <path d="M741.032,487.541C739.002,487.541 737.226,487.956 735.601,488.809C733.97,489.674 732.488,490.853 731.202,492.31C729.926,493.764 728.824,495.503 727.929,497.474C727.306,498.858 726.793,500.301 726.397,501.785C729.146,501.448 731.478,501.079 733.487,500.67C735.93,500.186 738.095,499.645 739.928,499.06C741.606,498.53 742.969,497.948 743.987,497.328C744.939,496.754 745.698,496.147 746.247,495.517C746.714,494.978 747.03,494.422 747.181,493.868C747.359,493.222 747.447,492.556 747.447,491.889C747.447,491.487 747.345,491.013 747.143,490.483C746.956,490.006 746.638,489.562 746.179,489.136C745.702,488.712 745.036,488.329 744.221,488.016C743.39,487.701 742.316,487.541 741.032,487.541ZM734.62,527.697C732.098,527.697 729.816,527.269 727.836,526.427C725.833,525.574 724.121,524.337 722.744,522.75C721.372,521.176 720.327,519.257 719.637,517.048C718.945,514.918 718.591,512.466 718.591,509.774C718.591,507.628 718.812,505.393 719.246,503.132C719.713,500.836 720.376,498.672 721.218,496.683C722.109,494.588 723.198,492.638 724.454,490.888C725.731,489.079 727.237,487.474 728.926,486.125C730.602,484.778 732.493,483.699 734.541,482.917C736.598,482.126 738.856,481.724 741.249,481.724C743.477,481.724 745.41,482.05 746.995,482.691C748.569,483.334 749.883,484.158 750.904,485.142C751.94,486.132 752.703,487.24 753.17,488.431C753.623,489.587 753.853,490.709 753.853,491.763C753.853,493.049 753.677,494.292 753.332,495.457C752.973,496.669 752.325,497.838 751.406,498.928C750.528,499.966 749.335,500.951 747.86,501.861C746.424,502.749 744.625,503.54 742.361,504.276C740.21,504.982 737.608,505.622 734.633,506.178C732.006,506.678 728.979,507.12 725.412,507.524C725.4,507.704 725.37,508.342 725.37,508.342C725.354,508.796 725.338,509.245 725.338,509.692C725.338,513.53 726.188,516.533 727.865,518.617C729.497,520.642 731.942,521.625 735.338,521.625C736.693,521.625 737.922,521.481 738.991,521.193C740.093,520.892 741.043,520.525 741.892,520.069C742.757,519.604 743.527,519.111 744.176,518.599C744.87,518.061 745.482,517.547 746.013,517.067C746.62,516.528 747.128,516.083 747.561,515.749C748.238,515.223 748.891,514.965 749.551,514.965C750.32,514.965 751.001,515.283 751.521,515.884L753.282,517.961L752.404,518.892C751.01,520.372 749.613,521.686 748.253,522.799C746.841,523.926 745.421,524.85 744.018,525.561C742.555,526.296 741.047,526.838 739.534,527.176C738.049,527.521 736.391,527.697 734.62,527.697Z" style="fill:white;fill-rule:nonzero;"/>
                <path d="M765.525,527.151L770.934,482.186L774.019,482.186C775.788,482.186 776.933,483.346 776.933,485.142L776.423,490.316C777.494,488.65 778.627,487.209 779.816,486.007C782.533,483.247 785.523,481.846 788.702,481.846C790.029,481.846 791.359,482.114 792.767,482.665L793.874,483.099L792.612,489.691L791.025,489.1C789.899,488.683 788.848,488.47 787.899,488.47C785.348,488.47 782.993,489.788 780.901,492.384C778.638,495.167 776.657,499.283 775.004,504.625L772.346,527.151L765.525,527.151Z" style="fill:white;fill-rule:nonzero;"/>
                <path d="M571.578,135.096C583.646,134.47 586.046,135.187 610.933,129.169C635.822,123.143 704.765,103.078 745.06,99.187C785.363,95.288 822.461,92.171 858.001,97.851C873.238,100.838 884.694,103.894 892.465,107.019C879.539,46.63 797.018,0.046 697.072,0.046C592.974,0.046 507.779,50.578 500.437,114.611C518.899,128.392 543.349,136.556 571.578,135.096Z" style="fill:white;"/>
                <path d="M787.87,101.948C765.48,105.443 736.619,112.945 701.269,124.445C701.269,124.445 690.041,127.784 677.271,131.667C647.668,140.694 658.707,137.504 610.019,147.759C566.447,156.938 521.787,134.168 500.073,118.377C499.96,120.104 499.864,121.835 499.864,123.58C499.864,191.814 588.154,247.121 697.072,247.121C805.988,247.121 894.279,191.814 894.279,123.58C894.279,119.121 893.882,114.723 893.147,110.386C890.942,109.223 888.456,108.05 885.683,107.142C855.471,95.807 810.252,98.453 787.87,101.948Z" style="fill:white;"/>
                <rect x="1027.28" y="338.204" width="20.61" height="20.615" style="fill:white;fill-rule:nonzero;"/>
            </g>
        </g>
    </g>
</svg>
